<svg xmlns="http://www.w3.org/2000/svg" viewBox="0 0 122 122">
  <rect fill="none" stroke="#000" stroke-miterlimit="10" stroke-width="8" x="4" y="4" width="114" height="114" rx="11.34"/>
  <path d="M95.27 42.2a8.67 8.67 0 0 0-11-8.36 8.3 8.3 0 0 0-5 3.74 8.7 8.7 0 0 0 1 10.42l-9.68 27.84L67.17 66h-8l10.49-28h-8.95l-1.65 4.71L57.42 38h-9l6.38 17-7.3 21-13.2-38h-9l19.15 51h5.84l8.61-22.91L67.5 89h6.17l14.38-38.24a8.65 8.65 0 0 0 7.22-8.56zm-8.8 5.52A5.55 5.55 0 1 1 92 42.17a5.56 5.56 0 0 1-5.53 5.55z"/>
</svg>